<svg width="274" height="224" viewBox="0 0 274 224" fill="none" xmlns="http://www.w3.org/2000/svg">
<rect x="0.5" y="1.11523" width="273" height="222" rx="5.78965" fill="white"/>
<path d="M23.3973 28.0203V31.5592H22.0891V29.1943H14.0551V31.5592H12.7468V28.0203H13.6022C14.1948 27.4724 14.6309 26.5331 14.9105 25.2025C15.19 23.8607 15.3298 21.9654 15.3298 19.5167L15.3465 18.1245H22.0555V28.0203H23.3973ZM16.5374 19.2986C16.5262 21.6356 16.3976 23.5141 16.1516 24.9341C15.9056 26.3542 15.5422 27.3829 15.0614 28.0203H20.7473V19.2986H16.5374ZM28.8322 29.3621C28.0495 29.3621 27.3339 29.172 26.6854 28.7918C26.0368 28.4116 25.5225 27.8973 25.1423 27.2487C24.7621 26.589 24.572 25.8734 24.572 25.1019C24.572 24.3192 24.7621 23.6035 25.1423 22.955C25.5225 22.2953 26.0368 21.7809 26.6854 21.4119C27.3451 21.0318 28.0663 20.8417 28.849 20.8417C29.6317 20.8417 30.3473 21.0318 30.9959 21.4119C31.6556 21.7921 32.1755 22.3065 32.5557 22.955C32.9359 23.6035 33.126 24.3192 33.126 25.1019C33.126 25.8734 32.9359 26.589 32.5557 27.2487C32.1755 27.8973 31.6556 28.4116 30.9959 28.7918C30.3361 29.172 29.6149 29.3621 28.8322 29.3621ZM28.8322 28.1712C29.3801 28.1712 29.8777 28.037 30.325 27.7687C30.7834 27.5003 31.1412 27.1369 31.3984 26.6785C31.6668 26.2088 31.8009 25.6889 31.8009 25.1186C31.8009 24.5372 31.6723 24.0117 31.4152 23.542C31.158 23.0724 30.8002 22.7034 30.3417 22.4351C29.8945 22.1667 29.3969 22.0325 28.849 22.0325C28.2899 22.0325 27.7867 22.1667 27.3395 22.4351C26.8922 22.7034 26.54 23.0724 26.2828 23.542C26.0256 24.0117 25.897 24.5372 25.897 25.1186C25.897 25.6889 26.0256 26.2088 26.2828 26.6785C26.54 27.1369 26.8922 27.5003 27.3395 27.7687C27.7867 28.037 28.2843 28.1712 28.8322 28.1712ZM39.3712 21.1436C40.1092 21.1436 40.7913 21.3281 41.4174 21.6971C42.0436 22.0661 42.5356 22.5692 42.8934 23.2066C43.2624 23.8328 43.4469 24.5148 43.4469 25.2528C43.4469 26.002 43.2568 26.6952 42.8766 27.3326C42.4964 27.9588 41.9821 28.4563 41.3336 28.8253C40.685 29.1832 39.9694 29.3621 39.1867 29.3621C38.3593 29.3621 37.6269 29.172 36.9895 28.7918C36.3522 28.4004 35.8546 27.8581 35.4968 27.1649C35.1501 26.4604 34.9768 25.6609 34.9768 24.7664V23.3408C34.9768 22.0884 35.0998 21.0597 35.3458 20.2546C35.603 19.4496 36.095 18.7787 36.8218 18.242C37.5598 17.7052 38.622 17.3195 40.0085 17.0847C41.3951 16.8387 42.312 16.6206 42.7592 16.4305V17.6717C42.2449 17.8953 41.3783 18.0966 40.1595 18.2755C38.9966 18.4432 38.13 18.7395 37.5598 19.1644C36.9895 19.5782 36.6261 20.0701 36.4696 20.6404C36.313 21.1995 36.2347 21.9151 36.2347 22.7873C36.5814 22.2729 37.0286 21.8704 37.5765 21.5797C38.1356 21.2889 38.7338 21.1436 39.3712 21.1436ZM39.2035 28.1712C39.7402 28.1712 40.2322 28.0426 40.6794 27.7855C41.1267 27.5283 41.4789 27.1761 41.7361 26.7288C41.9933 26.2815 42.1219 25.7895 42.1219 25.2528C42.1219 24.7161 41.9933 24.2241 41.7361 23.7768C41.4789 23.3296 41.1267 22.9774 40.6794 22.7202C40.2322 22.463 39.7402 22.3344 39.2035 22.3344C38.6779 22.3344 38.1915 22.463 37.7443 22.7202C37.297 22.9774 36.9392 23.3296 36.6708 23.7768C36.4137 24.2241 36.2851 24.7161 36.2851 25.2528C36.2851 25.7784 36.4137 26.2648 36.6708 26.712C36.9392 27.1593 37.297 27.5171 37.7443 27.7855C38.1915 28.0426 38.6779 28.1712 39.2035 28.1712ZM48.6503 20.8417C49.6119 20.8417 50.3834 21.1268 50.9649 21.6971C51.5463 22.2673 51.837 23.0892 51.837 24.1626V29.1943H50.6294V28.1377C50.3275 28.5402 49.9417 28.8477 49.4721 29.0602C49.0025 29.2726 48.4714 29.3788 47.8787 29.3788C47.0401 29.3788 46.3524 29.172 45.8157 28.7583C45.2902 28.3445 45.0274 27.7855 45.0274 27.081C45.0274 26.3878 45.2958 25.8343 45.8325 25.4205C46.3692 25.0068 47.0792 24.8 47.9626 24.8H50.5455V24.0955C50.5455 23.4246 50.3666 22.9159 50.0088 22.5692C49.6622 22.2114 49.1814 22.0325 48.5664 22.0325C48.0744 22.0325 47.6383 22.1443 47.2582 22.368C46.878 22.5804 46.5202 22.9047 46.1847 23.3408L45.3293 22.6363C45.6983 22.0325 46.1735 21.5853 46.755 21.2945C47.3364 20.9926 47.9682 20.8417 48.6503 20.8417ZM48.0465 28.3054C48.4937 28.3054 48.9074 28.2104 49.2876 28.0203C49.6678 27.819 49.9697 27.545 50.1933 27.1984C50.4281 26.8518 50.5455 26.4716 50.5455 26.0579V25.8566H48.1135C47.5433 25.8566 47.1072 25.9573 46.8053 26.1585C46.5034 26.3486 46.3524 26.6337 46.3524 27.0139C46.3524 27.4276 46.5146 27.7463 46.8388 27.9699C47.1631 28.1936 47.5656 28.3054 48.0465 28.3054ZM59.7254 24.7664C60.2062 24.9341 60.5808 25.1857 60.8492 25.5212C61.1287 25.8566 61.2685 26.2592 61.2685 26.7288C61.2685 27.4556 61.0057 28.0482 60.4802 28.5067C59.9547 28.9651 59.2502 29.1943 58.3669 29.1943H54.5763V21.0262H57.9476C58.7526 21.0262 59.39 21.2219 59.8596 21.6132C60.3404 22.0046 60.5808 22.5301 60.5808 23.1898C60.5808 23.5141 60.5025 23.816 60.346 24.0955C60.2006 24.3639 59.9938 24.5875 59.7254 24.7664ZM55.8678 24.3639H57.9643C58.4116 24.3639 58.747 24.2688 58.9707 24.0788C59.1943 23.8775 59.3061 23.6035 59.3061 23.2569C59.3061 22.5413 58.8589 22.1835 57.9643 22.1835H55.8678V24.3639ZM58.283 28.0538C58.8197 28.0538 59.2334 27.9308 59.5242 27.6848C59.8261 27.4388 59.977 27.1201 59.977 26.7288C59.977 26.3486 59.8261 26.0523 59.5242 25.8399C59.2334 25.6162 58.8197 25.5044 58.283 25.5044H55.8678V28.0538H58.283ZM63.6996 21.0262H64.991V23.8439H66.9366C67.8647 23.8439 68.6027 24.0899 69.1506 24.5819C69.7097 25.0627 69.9892 25.7057 69.9892 26.5108C69.9892 27.3158 69.7097 27.9644 69.1506 28.4563C68.6027 28.9483 67.8647 29.1943 66.9366 29.1943H63.6996V21.0262ZM66.8696 28.0538C67.4398 28.0538 67.8815 27.914 68.1946 27.6345C68.5077 27.355 68.6642 26.986 68.6642 26.5275C68.6642 26.0691 68.5021 25.7001 68.1778 25.4205C67.8647 25.1298 67.423 24.9845 66.8528 24.9845H64.991V28.0538H66.8696ZM73.5825 22.1835H70.8318V21.0262H77.6078V22.1835H74.8572V29.1943H73.5825V22.1835ZM86.5867 25.5044H80.1293C80.2076 26.3095 80.5263 26.958 81.0854 27.45C81.6444 27.942 82.3265 28.188 83.1316 28.188C84.0597 28.188 84.8927 27.819 85.6307 27.081L86.3854 27.9532C85.9605 28.4004 85.4685 28.7527 84.9095 29.0098C84.3616 29.2558 83.7633 29.3788 83.1148 29.3788C82.3097 29.3788 81.5773 29.1943 80.9176 28.8253C80.2579 28.4452 79.738 27.9308 79.3578 27.2823C78.9776 26.6337 78.7875 25.9125 78.7875 25.1186C78.7875 24.3359 78.972 23.6203 79.341 22.9718C79.71 22.3121 80.2132 21.7921 80.8505 21.4119C81.4879 21.0318 82.1923 20.8417 82.9639 20.8417C83.6571 20.8417 84.2889 20.9982 84.8591 21.3113C85.4294 21.6244 85.8767 22.0605 86.2009 22.6196C86.5252 23.1786 86.6873 23.816 86.6873 24.5316C86.6873 24.8447 86.6538 25.169 86.5867 25.5044ZM82.9303 22.0157C82.2482 22.0157 81.6556 22.2338 81.1524 22.6699C80.6493 23.0948 80.325 23.6594 80.1796 24.3639H85.3623C85.3511 23.6371 85.1107 23.0668 84.6411 22.6531C84.1827 22.2282 83.6124 22.0157 82.9303 22.0157ZM103.587 25.1354C103.587 25.974 103.385 26.712 102.983 27.3494C102.591 27.9755 102.044 28.4619 101.339 28.8086C100.646 29.1552 99.8575 29.3453 98.9742 29.3788V32.2134H97.6827V29.3788C96.7882 29.3453 95.9887 29.1552 95.2842 28.8086C94.591 28.4508 94.0487 27.9588 93.6573 27.3326C93.266 26.6952 93.0703 25.9573 93.0703 25.1186C93.0703 24.28 93.266 23.5476 93.6573 22.9215C94.0599 22.2953 94.6078 21.8089 95.301 21.4623C96.0055 21.1044 96.7994 20.9088 97.6827 20.8752V16.615H98.9742V20.8752C99.8687 20.9088 100.663 21.1044 101.356 21.4623C102.06 21.8089 102.608 22.3009 103 22.9382C103.391 23.5644 103.587 24.2968 103.587 25.1354ZM94.3953 25.1354C94.3953 26.0747 94.6916 26.8182 95.2842 27.3661C95.8769 27.9029 96.6819 28.1936 97.6995 28.2383V22.0157C96.6819 22.0605 95.8769 22.3568 95.2842 22.9047C94.6916 23.4526 94.3953 24.1962 94.3953 25.1354ZM98.9574 28.2383C99.9749 28.1936 100.78 27.8973 101.373 27.3494C101.965 26.8015 102.262 26.0579 102.262 25.1186C102.262 24.1794 101.965 23.4414 101.373 22.9047C100.78 22.3568 99.9749 22.0605 98.9574 22.0157V28.2383ZM109.517 29.3621C108.734 29.3621 108.018 29.172 107.37 28.7918C106.721 28.4116 106.207 27.8973 105.827 27.2487C105.447 26.589 105.256 25.8734 105.256 25.1019C105.256 24.3192 105.447 23.6035 105.827 22.955C106.207 22.2953 106.721 21.7809 107.37 21.4119C108.03 21.0318 108.751 20.8417 109.533 20.8417C110.316 20.8417 111.032 21.0318 111.68 21.4119C112.34 21.7921 112.86 22.3065 113.24 22.955C113.62 23.6035 113.81 24.3192 113.81 25.1019C113.81 25.8734 113.62 26.589 113.24 27.2487C112.86 27.8973 112.34 28.4116 111.68 28.7918C111.021 29.172 110.299 29.3621 109.517 29.3621ZM109.517 28.1712C110.065 28.1712 110.562 28.037 111.009 27.7687C111.468 27.5003 111.826 27.1369 112.083 26.6785C112.351 26.2088 112.485 25.6889 112.485 25.1186C112.485 24.5372 112.357 24.0117 112.1 23.542C111.842 23.0724 111.485 22.7034 111.026 22.4351C110.579 22.1667 110.081 22.0325 109.533 22.0325C108.974 22.0325 108.471 22.1667 108.024 22.4351C107.577 22.7034 107.224 23.0724 106.967 23.542C106.71 24.0117 106.582 24.5372 106.582 25.1186C106.582 25.6889 106.71 26.2088 106.967 26.6785C107.224 27.1369 107.577 27.5003 108.024 27.7687C108.471 28.037 108.969 28.1712 109.517 28.1712ZM117.61 22.1835H114.859V21.0262H121.635V22.1835H118.885V29.1943H117.61V22.1835ZM127.075 29.3621C126.293 29.3621 125.577 29.172 124.928 28.7918C124.28 28.4116 123.766 27.8973 123.385 27.2487C123.005 26.589 122.815 25.8734 122.815 25.1019C122.815 24.3192 123.005 23.6035 123.385 22.955C123.766 22.2953 124.28 21.7809 124.928 21.4119C125.588 21.0318 126.309 20.8417 127.092 20.8417C127.875 20.8417 128.59 21.0318 129.239 21.4119C129.899 21.7921 130.419 22.3065 130.799 22.955C131.179 23.6035 131.369 24.3192 131.369 25.1019C131.369 25.8734 131.179 26.589 130.799 27.2487C130.419 27.8973 129.899 28.4116 129.239 28.7918C128.579 29.172 127.858 29.3621 127.075 29.3621ZM127.075 28.1712C127.623 28.1712 128.121 28.037 128.568 27.7687C129.026 27.5003 129.384 27.1369 129.641 26.6785C129.91 26.2088 130.044 25.6889 130.044 25.1186C130.044 24.5372 129.915 24.0117 129.658 23.542C129.401 23.0724 129.043 22.7034 128.585 22.4351C128.138 22.1667 127.64 22.0325 127.092 22.0325C126.533 22.0325 126.03 22.1667 125.583 22.4351C125.135 22.7034 124.783 23.0724 124.526 23.542C124.269 24.0117 124.14 24.5372 124.14 25.1186C124.14 25.6889 124.269 26.2088 124.526 26.6785C124.783 27.1369 125.135 27.5003 125.583 27.7687C126.03 28.037 126.527 28.1712 127.075 28.1712ZM133.639 21.0262H139.141V22.1835H134.931V29.1943H133.639V21.0262ZM145.222 20.8417C145.993 20.8417 146.687 21.0318 147.302 21.4119C147.917 21.7809 148.397 22.2897 148.744 22.9382C149.091 23.5868 149.264 24.308 149.264 25.1019C149.264 25.8958 149.085 26.6226 148.727 27.2823C148.381 27.9308 147.9 28.4452 147.285 28.8253C146.67 29.1943 145.982 29.3788 145.222 29.3788C144.618 29.3788 144.048 29.2614 143.511 29.0266C142.985 28.7806 142.555 28.4452 142.219 28.0203V32.2134H140.928V21.0262H142.136V22.3344C142.449 21.8648 142.879 21.5014 143.427 21.2442C143.986 20.9759 144.584 20.8417 145.222 20.8417ZM145.037 28.188C145.585 28.188 146.077 28.0594 146.513 27.8022C146.96 27.5339 147.307 27.1649 147.553 26.6952C147.81 26.2256 147.939 25.7001 147.939 25.1186C147.939 24.5372 147.81 24.0117 147.553 23.542C147.307 23.0724 146.96 22.7034 146.513 22.4351C146.077 22.1667 145.585 22.0325 145.037 22.0325C144.545 22.0325 144.081 22.1443 143.645 22.368C143.22 22.5916 142.874 22.9326 142.605 23.3911C142.337 23.8495 142.203 24.4198 142.203 25.1019C142.203 25.7839 142.331 26.3598 142.588 26.8294C142.857 27.2879 143.203 27.6289 143.628 27.8525C144.064 28.0762 144.534 28.188 145.037 28.188ZM154.461 20.8417C155.422 20.8417 156.194 21.1268 156.775 21.6971C157.357 22.2673 157.647 23.0892 157.647 24.1626V29.1943H156.44V28.1377C156.138 28.5402 155.752 28.8477 155.282 29.0602C154.813 29.2726 154.282 29.3788 153.689 29.3788C152.85 29.3788 152.163 29.172 151.626 28.7583C151.101 28.3445 150.838 27.7855 150.838 27.081C150.838 26.3878 151.106 25.8343 151.643 25.4205C152.18 25.0068 152.89 24.8 153.773 24.8H156.356V24.0955C156.356 23.4246 156.177 22.9159 155.819 22.5692C155.473 22.2114 154.992 22.0325 154.377 22.0325C153.885 22.0325 153.449 22.1443 153.068 22.368C152.688 22.5804 152.33 22.9047 151.995 23.3408L151.14 22.6363C151.509 22.0325 151.984 21.5853 152.565 21.2945C153.147 20.9926 153.779 20.8417 154.461 20.8417ZM153.857 28.3054C154.304 28.3054 154.718 28.2104 155.098 28.0203C155.478 27.819 155.78 27.545 156.004 27.1984C156.238 26.8518 156.356 26.4716 156.356 26.0579V25.8566H153.924C153.354 25.8566 152.918 25.9573 152.616 26.1585C152.314 26.3486 152.163 26.6337 152.163 27.0139C152.163 27.4276 152.325 27.7463 152.649 27.9699C152.973 28.1936 153.376 28.3054 153.857 28.3054ZM170.316 25.1354C170.316 25.974 170.115 26.712 169.712 27.3494C169.321 27.9755 168.773 28.4619 168.068 28.8086C167.375 29.1552 166.587 29.3453 165.703 29.3788V32.2134H164.412V29.3788C163.517 29.3453 162.718 29.1552 162.014 28.8086C161.32 28.4508 160.778 27.9588 160.387 27.3326C159.995 26.6952 159.8 25.9573 159.8 25.1186C159.8 24.28 159.995 23.5476 160.387 22.9215C160.789 22.2953 161.337 21.8089 162.03 21.4623C162.735 21.1044 163.529 20.9088 164.412 20.8752V16.615H165.703V20.8752C166.598 20.9088 167.392 21.1044 168.085 21.4623C168.79 21.8089 169.337 22.3009 169.729 22.9382C170.12 23.5644 170.316 24.2968 170.316 25.1354ZM161.125 25.1354C161.125 26.0747 161.421 26.8182 162.014 27.3661C162.606 27.9029 163.411 28.1936 164.429 28.2383V22.0157C163.411 22.0605 162.606 22.3568 162.014 22.9047C161.421 23.4526 161.125 24.1962 161.125 25.1354ZM165.687 28.2383C166.704 28.1936 167.509 27.8973 168.102 27.3494C168.695 26.8015 168.991 26.0579 168.991 25.1186C168.991 24.1794 168.695 23.4414 168.102 22.9047C167.509 22.3568 166.704 22.0605 165.687 22.0157V28.2383ZM179.315 20.8417V29.1943H178.024V23.4246L173.042 29.3788H172.573V21.0262H173.864V26.8127L178.846 20.8417H179.315ZM188.897 20.8417V29.1943H187.606V23.4246L182.624 29.3788H182.155V21.0262H183.446V26.8127L188.428 20.8417H188.897ZM14.0048 42.0262H20.5292V50.1943H19.221V43.1835H15.2962V50.1943H14.0048V42.0262ZM29.5296 42.0262V50.1943H28.2381V43.1835H25.2023L25.1688 44.1898C25.124 45.6211 25.0178 46.7728 24.8501 47.6449C24.6824 48.5171 24.414 49.1712 24.045 49.6073C23.676 50.0434 23.1728 50.2614 22.5355 50.2614C22.3789 50.2614 22.2336 50.2391 22.0994 50.1943V49.1041C22.2336 49.1265 22.3454 49.1377 22.4349 49.1377C22.9604 49.1377 23.335 48.7295 23.5586 47.9133C23.7822 47.0858 23.9108 45.8335 23.9444 44.1563L23.9947 42.0262H29.5296ZM36.0555 50.3621C35.2728 50.3621 34.5572 50.172 33.9086 49.7918C33.2601 49.4116 32.7457 48.8973 32.3656 48.2487C31.9854 47.589 31.7953 46.8734 31.7953 46.1019C31.7953 45.3192 31.9854 44.6035 32.3656 43.955C32.7457 43.2953 33.2601 42.7809 33.9086 42.4119C34.5683 42.0318 35.2896 41.8417 36.0723 41.8417C36.855 41.8417 37.5706 42.0318 38.2191 42.4119C38.8789 42.7921 39.3988 43.3065 39.779 43.955C40.1591 44.6035 40.3492 45.3192 40.3492 46.1019C40.3492 46.8734 40.1591 47.589 39.779 48.2487C39.3988 48.8973 38.8789 49.4116 38.2191 49.7918C37.5594 50.172 36.8382 50.3621 36.0555 50.3621ZM36.0555 49.1712C36.6034 49.1712 37.101 49.037 37.5482 48.7687C38.0067 48.5003 38.3645 48.1369 38.6217 47.6785C38.89 47.2088 39.0242 46.6889 39.0242 46.1186C39.0242 45.5372 38.8956 45.0117 38.6384 44.542C38.3813 44.0724 38.0235 43.7034 37.565 43.4351C37.1177 43.1667 36.6202 43.0325 36.0723 43.0325C35.5132 43.0325 35.01 43.1667 34.5628 43.4351C34.1155 43.7034 33.7633 44.0724 33.5061 44.542C33.2489 45.0117 33.1203 45.5372 33.1203 46.1186C33.1203 46.6889 33.2489 47.2088 33.5061 47.6785C33.7633 48.1369 34.1155 48.5003 34.5628 48.7687C35.01 49.037 35.5076 49.1712 36.0555 49.1712ZM53.3873 50.1943H42.6194V42.0262H43.9109V49.0538H47.3325V42.0262H48.6239V49.0538H52.0623V42.0262H53.3537V49.0538H54.6788V52.5592H53.3873V50.1943ZM59.6408 41.8417C60.6024 41.8417 61.3739 42.1268 61.9554 42.6971C62.5368 43.2673 62.8275 44.0892 62.8275 45.1626V50.1943H61.6199V49.1377C61.318 49.5402 60.9323 49.8477 60.4626 50.0602C59.993 50.2726 59.4619 50.3788 58.8692 50.3788C58.0306 50.3788 57.343 50.172 56.8062 49.7583C56.2807 49.3445 56.0179 48.7855 56.0179 48.081C56.0179 47.3878 56.2863 46.8343 56.823 46.4205C57.3597 46.0068 58.0698 45.8 58.9531 45.8H61.5361V45.0955C61.5361 44.4246 61.3572 43.9159 60.9993 43.5692C60.6527 43.2114 60.1719 43.0325 59.5569 43.0325C59.0649 43.0325 58.6288 43.1443 58.2487 43.368C57.8685 43.5804 57.5107 43.9047 57.1752 44.3408L56.3198 43.6363C56.6888 43.0325 57.1641 42.5853 57.7455 42.2945C58.3269 41.9926 58.9587 41.8417 59.6408 41.8417ZM59.037 49.3054C59.4842 49.3054 59.898 49.2104 60.2781 49.0203C60.6583 48.819 60.9602 48.545 61.1838 48.1984C61.4187 47.8518 61.5361 47.4716 61.5361 47.0579V46.8566H59.1041C58.5338 46.8566 58.0977 46.9573 57.7958 47.1585C57.4939 47.3486 57.343 47.6337 57.343 48.0139C57.343 48.4276 57.5051 48.7463 57.8294 48.9699C58.1536 49.1936 58.5562 49.3054 59.037 49.3054ZM73.2318 49.0538V52.5592H71.9403V50.1943H65.5165V52.5592H64.225V49.0538H65.1475C65.5277 48.6625 65.796 48.0866 65.9526 47.3263C66.1091 46.5547 66.1986 45.554 66.2209 44.324L66.2713 42.0262H71.9068V49.0538H73.2318ZM67.4453 44.3408C67.423 45.4813 67.3279 46.4597 67.1602 47.2759C66.9925 48.081 66.7744 48.6736 66.5061 49.0538H70.6153V43.1835H67.4956L67.4453 44.3408ZM75.2634 42.0262H76.5548V50.1943H75.2634V42.0262ZM82.1401 50.1943H80.5131L76.7226 45.7664L80.1609 42.0262H81.7711L78.2992 45.7329L82.1401 50.1943ZM90.6378 41.8417V50.1943H89.3463V44.4246L84.3649 50.3788H83.8953V42.0262H85.1867V47.8127L90.1681 41.8417H90.6378ZM101.868 50.3788C101.085 50.3788 100.364 50.1887 99.7043 49.8086C99.0558 49.4284 98.5414 48.914 98.1612 48.2655C97.7811 47.6058 97.591 46.8846 97.591 46.1019C97.591 45.3192 97.7811 44.6035 98.1612 43.955C98.5414 43.3065 99.0558 42.7921 99.7043 42.4119C100.364 42.0318 101.085 41.8417 101.868 41.8417C102.584 41.8417 103.232 42.0038 103.814 42.3281C104.395 42.6412 104.87 43.0717 105.239 43.6196L104.317 44.3575C103.657 43.4742 102.846 43.0325 101.885 43.0325C101.326 43.0325 100.817 43.1723 100.358 43.4518C99.9112 43.7202 99.5589 44.0892 99.3018 44.5588C99.0446 45.0284 98.916 45.5428 98.916 46.1019C98.916 46.6721 99.0446 47.1921 99.3018 47.6617C99.5589 48.1313 99.9112 48.5059 100.358 48.7855C100.817 49.0538 101.326 49.188 101.885 49.188C102.846 49.188 103.651 48.7519 104.3 47.8797L105.222 48.601C104.853 49.1489 104.378 49.5849 103.797 49.9092C103.227 50.2223 102.584 50.3788 101.868 50.3788ZM114.36 41.8417C115.12 41.8417 115.819 42.0318 116.456 42.4119C117.105 42.7921 117.614 43.3065 117.983 43.955C118.363 44.6035 118.553 45.3192 118.553 46.1019C118.553 46.8734 118.363 47.589 117.983 48.2487C117.614 48.8973 117.105 49.4116 116.456 49.7918C115.819 50.172 115.114 50.3621 114.343 50.3621C113.605 50.3621 112.928 50.1887 112.313 49.8421C111.698 49.4955 111.201 49.0203 110.821 48.4165C110.441 47.8127 110.228 47.1473 110.183 46.4205H108.707V50.1943H107.416V42.0262H108.707V45.28H110.234C110.357 44.6203 110.614 44.0333 111.005 43.5189C111.397 42.9934 111.883 42.5853 112.464 42.2945C113.046 41.9926 113.678 41.8417 114.36 41.8417ZM114.343 49.1712C114.88 49.1712 115.366 49.037 115.802 48.7687C116.249 48.5003 116.596 48.1369 116.842 47.6785C117.099 47.2088 117.228 46.6889 117.228 46.1186C117.228 45.5484 117.099 45.0284 116.842 44.5588C116.596 44.0892 116.255 43.7202 115.819 43.4518C115.383 43.1723 114.896 43.0325 114.36 43.0325C113.812 43.0325 113.32 43.1667 112.884 43.4351C112.448 43.7034 112.107 44.0724 111.861 44.542C111.615 45.0117 111.492 45.5372 111.492 46.1186C111.492 46.6889 111.615 47.2088 111.861 47.6785C112.107 48.1369 112.448 48.5003 112.884 48.7687C113.32 49.037 113.806 49.1712 114.343 49.1712ZM128.234 49.0538V52.5592H126.942V50.1943H120.518V52.5592H119.227V49.0538H120.149C120.529 48.6625 120.798 48.0866 120.954 47.3263C121.111 46.5547 121.2 45.554 121.223 44.324L121.273 42.0262H126.908V49.0538H128.234ZM122.447 44.3408C122.425 45.4813 122.33 46.4597 122.162 47.2759C121.994 48.081 121.776 48.6736 121.508 49.0538H125.617V43.1835H122.497L122.447 44.3408ZM133.2 41.8417C134.162 41.8417 134.933 42.1268 135.515 42.6971C136.096 43.2673 136.387 44.0892 136.387 45.1626V50.1943H135.179V49.1377C134.877 49.5402 134.492 49.8477 134.022 50.0602C133.552 50.2726 133.021 50.3788 132.429 50.3788C131.59 50.3788 130.902 50.172 130.366 49.7583C129.84 49.3445 129.577 48.7855 129.577 48.081C129.577 47.3878 129.846 46.8343 130.382 46.4205C130.919 46.0068 131.629 45.8 132.513 45.8H135.096V45.0955C135.096 44.4246 134.917 43.9159 134.559 43.5692C134.212 43.2114 133.731 43.0325 133.116 43.0325C132.624 43.0325 132.188 43.1443 131.808 43.368C131.428 43.5804 131.07 43.9047 130.735 44.3408L129.879 43.6363C130.248 43.0325 130.724 42.5853 131.305 42.2945C131.886 41.9926 132.518 41.8417 133.2 41.8417ZM132.596 49.3054C133.044 49.3054 133.457 49.2104 133.838 49.0203C134.218 48.819 134.52 48.545 134.743 48.1984C134.978 47.8518 135.096 47.4716 135.096 47.0579V46.8566H132.664C132.093 46.8566 131.657 46.9573 131.355 47.1585C131.053 47.3486 130.902 47.6337 130.902 48.0139C130.902 48.4276 131.065 48.7463 131.389 48.9699C131.713 49.1936 132.116 49.3054 132.596 49.3054ZM146.964 52.3915C146.024 51.9331 145.247 51.1224 144.632 49.9595C144.017 48.7855 143.71 47.1809 143.71 45.1458C143.71 43.0996 144.017 41.495 144.632 40.3322C145.247 39.1581 146.024 38.3418 146.964 37.8834L147.517 38.7723C145.829 39.8681 144.984 41.9926 144.984 45.1458C144.984 46.9125 145.219 48.2991 145.689 49.3054C146.17 50.3117 146.779 51.0441 147.517 51.5026L146.964 52.3915ZM154.562 45.7664C155.042 45.9341 155.417 46.1857 155.685 46.5212C155.965 46.8566 156.105 47.2592 156.105 47.7288C156.105 48.4556 155.842 49.0482 155.316 49.5067C154.791 49.9651 154.086 50.1943 153.203 50.1943H149.412V42.0262H152.784C153.589 42.0262 154.226 42.2219 154.696 42.6132C155.177 43.0046 155.417 43.5301 155.417 44.1898C155.417 44.5141 155.339 44.816 155.182 45.0955C155.037 45.3639 154.83 45.5875 154.562 45.7664ZM150.704 45.3639H152.801C153.248 45.3639 153.583 45.2688 153.807 45.0788C154.03 44.8775 154.142 44.6035 154.142 44.2569C154.142 43.5413 153.695 43.1835 152.801 43.1835H150.704V45.3639ZM153.119 49.0538C153.656 49.0538 154.07 48.9308 154.36 48.6848C154.662 48.4388 154.813 48.1201 154.813 47.7288C154.813 47.3486 154.662 47.0523 154.36 46.8399C154.07 46.6162 153.656 46.5044 153.119 46.5044H150.704V49.0538H153.119ZM167.53 41.8417C168.302 41.8417 168.995 42.0318 169.61 42.4119C170.225 42.7809 170.706 43.2897 171.053 43.9382C171.399 44.5868 171.573 45.308 171.573 46.1019C171.573 46.8958 171.394 47.6226 171.036 48.2823C170.689 48.9308 170.208 49.4452 169.593 49.8253C168.978 50.1943 168.291 50.3788 167.53 50.3788C166.927 50.3788 166.356 50.2614 165.82 50.0266C165.294 49.7806 164.864 49.4452 164.528 49.0203V53.2134H163.237V42.0262H164.444V43.3344C164.757 42.8648 165.188 42.5014 165.736 42.2442C166.295 41.9759 166.893 41.8417 167.53 41.8417ZM167.346 49.188C167.894 49.188 168.386 49.0594 168.822 48.8022C169.269 48.5339 169.616 48.1649 169.862 47.6952C170.119 47.2256 170.247 46.7001 170.247 46.1186C170.247 45.5372 170.119 45.0117 169.862 44.542C169.616 44.0724 169.269 43.7034 168.822 43.4351C168.386 43.1667 167.894 43.0325 167.346 43.0325C166.854 43.0325 166.39 43.1443 165.954 43.368C165.529 43.5916 165.182 43.9326 164.914 44.3911C164.645 44.8495 164.511 45.4198 164.511 46.1019C164.511 46.7839 164.64 47.3598 164.897 47.8294C165.165 48.2879 165.512 48.6289 165.937 48.8525C166.373 49.0762 166.843 49.188 167.346 49.188ZM176.769 41.8417C177.731 41.8417 178.502 42.1268 179.084 42.6971C179.665 43.2673 179.956 44.0892 179.956 45.1626V50.1943H178.748V49.1377C178.446 49.5402 178.061 49.8477 177.591 50.0602C177.121 50.2726 176.59 50.3788 175.998 50.3788C175.159 50.3788 174.471 50.172 173.935 49.7583C173.409 49.3445 173.146 48.7855 173.146 48.081C173.146 47.3878 173.415 46.8343 173.951 46.4205C174.488 46.0068 175.198 45.8 176.082 45.8H178.664V45.0955C178.664 44.4246 178.486 43.9159 178.128 43.5692C177.781 43.2114 177.3 43.0325 176.685 43.0325C176.193 43.0325 175.757 43.1443 175.377 43.368C174.997 43.5804 174.639 43.9047 174.304 44.3408L173.448 43.6363C173.817 43.0325 174.292 42.5853 174.874 42.2945C175.455 41.9926 176.087 41.8417 176.769 41.8417ZM176.165 49.3054C176.613 49.3054 177.026 49.2104 177.407 49.0203C177.787 48.819 178.089 48.545 178.312 48.1984C178.547 47.8518 178.664 47.4716 178.664 47.0579V46.8566H176.232C175.662 46.8566 175.226 46.9573 174.924 47.1585C174.622 47.3486 174.471 47.6337 174.471 48.0139C174.471 48.4276 174.634 48.7463 174.958 48.9699C175.282 49.1936 175.685 49.3054 176.165 49.3054ZM186.855 45.8335C187.302 46.0124 187.643 46.2808 187.878 46.6386C188.124 46.9852 188.247 47.3878 188.247 47.8462C188.247 48.6177 187.962 49.2327 187.392 49.6912C186.832 50.1496 186.089 50.3788 185.161 50.3788C184.49 50.3788 183.892 50.2447 183.366 49.9763C182.841 49.6968 182.393 49.3054 182.024 48.8022L182.897 48.0307C183.176 48.3997 183.495 48.6848 183.853 48.8861C184.21 49.0874 184.641 49.188 185.144 49.188C185.714 49.188 186.15 49.0594 186.452 48.8022C186.765 48.5339 186.922 48.1872 186.922 47.7623C186.922 47.371 186.765 47.0523 186.452 46.8063C186.15 46.5603 185.714 46.4373 185.144 46.4373H184.255V45.2968H185.127C185.597 45.2968 185.949 45.1962 186.184 44.9949C186.43 44.7936 186.553 44.5141 186.553 44.1563C186.553 43.8096 186.424 43.5357 186.167 43.3344C185.921 43.1332 185.563 43.0325 185.094 43.0325C184.635 43.0325 184.244 43.122 183.92 43.3009C183.607 43.4686 183.316 43.7146 183.047 44.0389L182.175 43.2673C182.488 42.8424 182.891 42.5014 183.383 42.2442C183.886 41.9759 184.473 41.8417 185.144 41.8417C185.96 41.8417 186.609 42.0429 187.09 42.4455C187.582 42.8368 187.828 43.3791 187.828 44.0724C187.828 44.4414 187.744 44.7768 187.576 45.0788C187.419 45.3807 187.179 45.6322 186.855 45.8335ZM194.835 41.8417C195.606 41.8417 196.299 42.0318 196.914 42.4119C197.529 42.7809 198.01 43.2897 198.357 43.9382C198.703 44.5868 198.877 45.308 198.877 46.1019C198.877 46.8958 198.698 47.6226 198.34 48.2823C197.993 48.9308 197.513 49.4452 196.898 49.8253C196.283 50.1943 195.595 50.3788 194.835 50.3788C194.231 50.3788 193.661 50.2614 193.124 50.0266C192.598 49.7806 192.168 49.4452 191.832 49.0203V53.2134H190.541V42.0262H191.749V43.3344C192.062 42.8648 192.492 42.5014 193.04 42.2442C193.599 41.9759 194.197 41.8417 194.835 41.8417ZM194.65 49.188C195.198 49.188 195.69 49.0594 196.126 48.8022C196.573 48.5339 196.92 48.1649 197.166 47.6952C197.423 47.2256 197.552 46.7001 197.552 46.1186C197.552 45.5372 197.423 45.0117 197.166 44.542C196.92 44.0724 196.573 43.7034 196.126 43.4351C195.69 43.1667 195.198 43.0325 194.65 43.0325C194.158 43.0325 193.694 43.1443 193.258 43.368C192.833 43.5916 192.487 43.9326 192.218 44.3911C191.95 44.8495 191.816 45.4198 191.816 46.1019C191.816 46.7839 191.944 47.3598 192.201 47.8294C192.47 48.2879 192.816 48.6289 193.241 48.8525C193.677 49.0762 194.147 49.188 194.65 49.188ZM204.074 41.8417C205.035 41.8417 205.807 42.1268 206.388 42.6971C206.97 43.2673 207.26 44.0892 207.26 45.1626V50.1943H206.053V49.1377C205.751 49.5402 205.365 49.8477 204.895 50.0602C204.426 50.2726 203.895 50.3788 203.302 50.3788C202.463 50.3788 201.776 50.172 201.239 49.7583C200.713 49.3445 200.451 48.7855 200.451 48.081C200.451 47.3878 200.719 46.8343 201.256 46.4205C201.792 46.0068 202.502 45.8 203.386 45.8H205.969V45.0955C205.969 44.4246 205.79 43.9159 205.432 43.5692C205.085 43.2114 204.605 43.0325 203.99 43.0325C203.498 43.0325 203.062 43.1443 202.681 43.368C202.301 43.5804 201.943 43.9047 201.608 44.3408L200.753 43.6363C201.122 43.0325 201.597 42.5853 202.178 42.2945C202.76 41.9926 203.391 41.8417 204.074 41.8417ZM203.47 49.3054C203.917 49.3054 204.331 49.2104 204.711 49.0203C205.091 48.819 205.393 48.545 205.617 48.1984C205.851 47.8518 205.969 47.4716 205.969 47.0579V46.8566H203.537C202.967 46.8566 202.53 46.9573 202.229 47.1585C201.927 47.3486 201.776 47.6337 201.776 48.0139C201.776 48.4276 201.938 48.7463 202.262 48.9699C202.586 49.1936 202.989 49.3054 203.47 49.3054ZM213.975 42.1436C214.713 42.1436 215.395 42.3281 216.021 42.6971C216.647 43.0661 217.139 43.5692 217.497 44.2066C217.866 44.8328 218.05 45.5148 218.05 46.2528C218.05 47.002 217.86 47.6952 217.48 48.3326C217.1 48.9588 216.586 49.4563 215.937 49.8253C215.288 50.1832 214.573 50.3621 213.79 50.3621C212.963 50.3621 212.23 50.172 211.593 49.7918C210.956 49.4004 210.458 48.8581 210.1 48.1649C209.754 47.4604 209.58 46.6609 209.58 45.7664V44.3408C209.58 43.0884 209.703 42.0597 209.949 41.2546C210.206 40.4496 210.698 39.7787 211.425 39.242C212.163 38.7052 213.225 38.3195 214.612 38.0847C215.998 37.8387 216.915 37.6206 217.363 37.4305V38.6717C216.848 38.8953 215.982 39.0966 214.763 39.2755C213.6 39.4432 212.733 39.7395 212.163 40.1644C211.593 40.5782 211.23 41.0701 211.073 41.6404C210.916 42.1995 210.838 42.9151 210.838 43.7873C211.185 43.2729 211.632 42.8704 212.18 42.5797C212.739 42.2889 213.337 42.1436 213.975 42.1436ZM213.807 49.1712C214.344 49.1712 214.836 49.0426 215.283 48.7855C215.73 48.5283 216.082 48.1761 216.34 47.7288C216.597 47.2815 216.725 46.7895 216.725 46.2528C216.725 45.7161 216.597 45.2241 216.34 44.7768C216.082 44.3296 215.73 43.9774 215.283 43.7202C214.836 43.463 214.344 43.3344 213.807 43.3344C213.281 43.3344 212.795 43.463 212.348 43.7202C211.9 43.9774 211.543 44.3296 211.274 44.7768C211.017 45.2241 210.888 45.7161 210.888 46.2528C210.888 46.7784 211.017 47.2648 211.274 47.712C211.543 48.1593 211.9 48.5171 212.348 48.7855C212.795 49.0426 213.281 49.1712 213.807 49.1712ZM223.992 50.3621C223.209 50.3621 222.493 50.172 221.845 49.7918C221.196 49.4116 220.682 48.8973 220.302 48.2487C219.922 47.589 219.731 46.8734 219.731 46.1019C219.731 45.3192 219.922 44.6035 220.302 43.955C220.682 43.2953 221.196 42.7809 221.845 42.4119C222.504 42.0318 223.226 41.8417 224.008 41.8417C224.791 41.8417 225.507 42.0318 226.155 42.4119C226.815 42.7921 227.335 43.3065 227.715 43.955C228.095 44.6035 228.285 45.3192 228.285 46.1019C228.285 46.8734 228.095 47.589 227.715 48.2487C227.335 48.8973 226.815 49.4116 226.155 49.7918C225.496 50.172 224.774 50.3621 223.992 50.3621ZM223.992 49.1712C224.54 49.1712 225.037 49.037 225.484 48.7687C225.943 48.5003 226.301 48.1369 226.558 47.6785C226.826 47.2088 226.96 46.6889 226.96 46.1186C226.96 45.5372 226.832 45.0117 226.575 44.542C226.317 44.0724 225.96 43.7034 225.501 43.4351C225.054 43.1667 224.556 43.0325 224.008 43.0325C223.449 43.0325 222.946 43.1667 222.499 43.4351C222.052 43.7034 221.699 44.0724 221.442 44.542C221.185 45.0117 221.056 45.5372 221.056 46.1186C221.056 46.6889 221.185 47.2088 221.442 47.6785C221.699 48.1369 222.052 48.5003 222.499 48.7687C222.946 49.037 223.444 49.1712 223.992 49.1712ZM232.085 43.1835H229.334V42.0262H236.11V43.1835H233.36V50.1943H232.085V43.1835ZM237.893 42.0262H239.185V50.1943H237.893V42.0262ZM244.77 50.1943H243.143L239.353 45.7664L242.791 42.0262H244.401L240.929 45.7329L244.77 50.1943ZM253.492 46.5044H247.034C247.113 47.3095 247.431 47.958 247.99 48.45C248.55 48.942 249.232 49.188 250.037 49.188C250.965 49.188 251.798 48.819 252.536 48.081L253.291 48.9532C252.866 49.4004 252.374 49.7527 251.815 50.0098C251.267 50.2558 250.668 50.3788 250.02 50.3788C249.215 50.3788 248.482 50.1943 247.823 49.8253C247.163 49.4452 246.643 48.9308 246.263 48.2823C245.883 47.6337 245.693 46.9125 245.693 46.1186C245.693 45.3359 245.877 44.6203 246.246 43.9718C246.615 43.3121 247.118 42.7921 247.756 42.4119C248.393 42.0318 249.097 41.8417 249.869 41.8417C250.562 41.8417 251.194 41.9982 251.764 42.3113C252.335 42.6244 252.782 43.0605 253.106 43.6196C253.43 44.1786 253.592 44.816 253.592 45.5316C253.592 45.8447 253.559 46.169 253.492 46.5044ZM249.835 43.0157C249.153 43.0157 248.561 43.2338 248.058 43.6699C247.554 44.0948 247.23 44.6594 247.085 45.3639H252.267C252.256 44.6371 252.016 44.0668 251.546 43.6531C251.088 43.2282 250.518 43.0157 249.835 43.0157ZM254.906 51.5026C255.644 51.0441 256.253 50.3117 256.734 49.3054C257.215 48.2991 257.455 46.9125 257.455 45.1458C257.455 42.0038 256.605 39.8793 254.906 38.7723L255.476 37.8834C256.404 38.3418 257.175 39.1581 257.79 40.3322C258.405 41.495 258.713 43.0996 258.713 45.1458C258.713 47.1921 258.405 48.7966 257.79 49.9595C257.175 51.1224 256.404 51.9331 255.476 52.3915L254.906 51.5026Z" fill="#FF93A5"/>
<rect x="0.5" y="1.11523" width="273" height="222" rx="5.78965" stroke="#FF93A5"/>
</svg>
