<svg width="159" height="29" viewBox="0 0 159 29" fill="none" xmlns="http://www.w3.org/2000/svg">
<g clip-path="url(#clip0_375_1088)">
<path d="M14.3927 19.6218C13.9193 20.3743 13.2719 20.9141 12.4517 21.2402C11.6308 21.5678 10.7309 21.7308 9.75285 21.7308C9.09025 21.7308 8.48246 21.625 7.93043 21.4119C7.3776 21.1997 6.94356 20.8892 6.628 20.48C6.31246 20.0715 6.15453 19.5565 6.15453 18.935C6.15453 18.2481 6.32051 17.6593 6.65218 17.1687C6.98325 16.6781 7.48033 16.2859 8.14307 15.9912C8.80607 15.6974 9.61102 15.5498 10.5576 15.5498C11.8519 15.5498 12.9723 15.7139 13.9193 16.0404C14.32 16.1792 14.7136 16.3569 15.103 16.5597V16.6293C15.103 17.8725 14.8664 18.8697 14.3927 19.6218ZM16.4048 3.33557C14.968 2.77994 13.304 2.50195 11.4099 2.50195C9.45274 2.50195 7.66961 2.78871 6.06031 3.3598C4.45037 3.93303 3.09277 4.52999 1.98834 5.15058L4.21373 9.51648C4.56093 9.28802 5.07347 9.00962 5.75255 8.68263C6.43108 8.35613 7.22011 8.0694 8.11977 7.8242C9.01917 7.57884 9.98984 7.4561 11.0311 7.4561C12.2306 7.4561 13.2089 7.74285 13.9666 8.31473C14.724 8.88714 15.103 9.68055 15.103 10.6938V13.2938C14.4256 12.9222 13.6072 12.594 12.641 12.3126C11.6308 12.0182 10.5419 11.8713 9.37443 11.8713C7.48033 11.8713 5.83112 12.1653 4.42681 12.7542C3.02209 13.3426 1.93317 14.185 1.16023 15.2803C0.386261 16.3764 0 17.6925 0 19.2288C0 20.7333 0.339141 22.0008 1.01784 23.0307C1.69633 24.0609 2.61971 24.838 3.78779 25.3607C4.95484 25.8836 6.28062 26.1459 7.76452 26.1459C9.27939 26.1459 10.6445 25.8762 11.8598 25.3365C13.0746 24.7965 14.0451 24.0121 14.7713 22.9815C14.8935 22.8085 15.0016 22.6271 15.103 22.4421V25.6552H21.0209V9.66338C21.0209 8.12701 20.6105 6.82701 19.7896 5.76382C18.9687 4.70129 17.8408 3.89191 16.4048 3.33557Z" fill="#141414"/>
<path d="M47.6682 3.08887H40.3297L32.3288 11.0438V3.08887H26.4106V25.6536H32.3288V14.1629L41.324 25.6536H48.6152L38.2942 12.4089L47.6682 3.08887Z" fill="#141414"/>
<path d="M58.1119 14.9422V3.08999H52.1943V27.3714L67.2498 13.8025V25.6547H73.167V1.37305L58.1119 14.9422Z" fill="#141414"/>
<path d="M79.0859 22.5911C79.0859 24.2845 80.4105 25.657 82.0442 25.657C83.6786 25.657 85.0038 24.2845 85.0038 22.5911C85.0038 20.8979 83.6786 19.5254 82.0442 19.5254C80.4105 19.5254 79.0859 20.8979 79.0859 22.5911Z" fill="#E74362"/>
<path d="M92.0074 9.91369H96.6178V15.6855H95.6933V10.7315H92.92V15.6855H92.0074V9.91369ZM101.212 15.8041C100.659 15.8041 100.153 15.6697 99.6947 15.4011C99.2365 15.1325 98.873 14.769 98.6044 14.3107C98.3357 13.8446 98.2014 13.3389 98.2014 12.7937C98.2014 12.2406 98.3357 11.7349 98.6044 11.2767C98.873 10.8105 99.2365 10.447 99.6947 10.1863C100.161 9.91765 100.671 9.78332 101.224 9.78332C101.777 9.78332 102.282 9.91765 102.741 10.1863C103.207 10.4549 103.574 10.8184 103.843 11.2767C104.112 11.7349 104.246 12.2406 104.246 12.7937C104.246 13.3389 104.112 13.8446 103.843 14.3107C103.574 14.769 103.207 15.1325 102.741 15.4011C102.274 15.6697 101.765 15.8041 101.212 15.8041ZM101.212 14.9626C101.599 14.9626 101.951 14.8678 102.267 14.6781C102.591 14.4885 102.843 14.2317 103.025 13.9078C103.215 13.5759 103.31 13.2085 103.31 12.8055C103.31 12.3947 103.219 12.0233 103.037 11.6915C102.855 11.3596 102.602 11.0989 102.278 10.9093C101.962 10.7196 101.611 10.6248 101.224 10.6248C100.829 10.6248 100.473 10.7196 100.157 10.9093C99.8409 11.0989 99.592 11.3596 99.4103 11.6915C99.2285 12.0233 99.1377 12.3947 99.1377 12.8055C99.1377 13.2085 99.2285 13.5759 99.4103 13.9078C99.592 14.2317 99.8409 14.4885 100.157 14.6781C100.473 14.8678 100.825 14.9626 101.212 14.9626ZM110.614 9.78332V15.6855H109.702V11.6085L106.182 15.8159H105.85V9.91369H106.763V14.0026L110.283 9.78332H110.614ZM115.228 15.8159C114.675 15.8159 114.166 15.6816 113.699 15.413C113.241 15.1443 112.878 14.7809 112.609 14.3226C112.34 13.8564 112.206 13.3468 112.206 12.7937C112.206 12.2406 112.34 11.7349 112.609 11.2767C112.878 10.8184 113.241 10.4549 113.699 10.1863C114.166 9.91765 114.675 9.78332 115.228 9.78332C115.734 9.78332 116.192 9.89789 116.603 10.127C117.014 10.3483 117.35 10.6525 117.61 11.0396L116.959 11.5611C116.492 10.9369 115.92 10.6248 115.24 10.6248C114.845 10.6248 114.486 10.7236 114.162 10.9211C113.846 11.1107 113.597 11.3715 113.415 11.7033C113.233 12.0352 113.142 12.3986 113.142 12.7937C113.142 13.1967 113.233 13.5641 113.415 13.8959C113.597 14.2278 113.846 14.4925 114.162 14.69C114.486 14.8796 114.845 14.9744 115.24 14.9744C115.92 14.9744 116.488 14.6663 116.947 14.05L117.599 14.5596C117.338 14.9468 117.002 15.2549 116.591 15.4841C116.188 15.7053 115.734 15.8159 115.228 15.8159ZM119.149 9.91369H120.061V15.6855H119.149V9.91369ZM124.008 15.6855H122.858L120.18 12.5567L122.609 9.91369H123.747L121.294 12.533L124.008 15.6855ZM92.0074 19.9137H96.6178V25.6855H95.6933V20.7315H92.92V25.6855H92.0074V19.9137ZM102.978 19.9137V25.6855H102.065V20.7315H99.9199L99.8962 21.4426C99.8646 22.4539 99.7895 23.2678 99.671 23.8841C99.5525 24.5004 99.3629 24.9626 99.1021 25.2707C98.8414 25.5789 98.4858 25.733 98.0355 25.733C97.9248 25.733 97.8221 25.7172 97.7273 25.6855V24.9152C97.8221 24.931 97.9011 24.9389 97.9644 24.9389C98.3357 24.9389 98.6004 24.6505 98.7584 24.0737C98.9165 23.489 99.0073 22.6041 99.031 21.4189L99.0666 19.9137H102.978ZM107.589 25.8041C107.036 25.8041 106.53 25.6697 106.072 25.4011C105.614 25.1325 105.25 24.769 104.982 24.3107C104.713 23.8446 104.579 23.3389 104.579 22.7937C104.579 22.2406 104.713 21.7349 104.982 21.2767C105.25 20.8105 105.614 20.447 106.072 20.1863C106.538 19.9176 107.048 19.7833 107.601 19.7833C108.154 19.7833 108.66 19.9176 109.118 20.1863C109.584 20.4549 109.952 20.8184 110.22 21.2767C110.489 21.7349 110.623 22.2406 110.623 22.7937C110.623 23.3389 110.489 23.8446 110.22 24.3107C109.952 24.769 109.584 25.1325 109.118 25.4011C108.652 25.6697 108.142 25.8041 107.589 25.8041ZM107.589 24.9626C107.976 24.9626 108.328 24.8678 108.644 24.6781C108.968 24.4885 109.221 24.2317 109.402 23.9078C109.592 23.5759 109.687 23.2085 109.687 22.8055C109.687 22.3947 109.596 22.0233 109.414 21.6915C109.233 21.3596 108.98 21.0989 108.656 20.9093C108.34 20.7196 107.988 20.6248 107.601 20.6248C107.206 20.6248 106.85 20.7196 106.534 20.9093C106.218 21.0989 105.969 21.3596 105.788 21.6915C105.606 22.0233 105.515 22.3947 105.515 22.8055C105.515 23.2085 105.606 23.5759 105.788 23.9078C105.969 24.2317 106.218 24.4885 106.534 24.6781C106.85 24.8678 107.202 24.9626 107.589 24.9626ZM119.836 25.6855H112.227V19.9137H113.14V24.8796H115.558V19.9137H116.47V24.8796H118.9V19.9137H119.813V24.8796H120.749V27.3567H119.836V25.6855ZM124.255 19.7833C124.935 19.7833 125.48 19.9848 125.891 20.3878C126.302 20.7907 126.507 21.3715 126.507 22.13V25.6855H125.654V24.9389C125.44 25.2233 125.168 25.4406 124.836 25.5907C124.504 25.7409 124.129 25.8159 123.71 25.8159C123.117 25.8159 122.631 25.6697 122.252 25.3774C121.881 25.0851 121.695 24.69 121.695 24.1922C121.695 23.7023 121.885 23.3112 122.264 23.0189C122.643 22.7265 123.145 22.5804 123.769 22.5804H125.594V22.0826C125.594 21.6085 125.468 21.249 125.215 21.0041C124.97 20.7512 124.63 20.6248 124.196 20.6248C123.848 20.6248 123.54 20.7038 123.271 20.8618C123.003 21.012 122.75 21.2411 122.513 21.5493L121.908 21.0515C122.169 20.6248 122.505 20.3088 122.916 20.1033C123.327 19.89 123.773 19.7833 124.255 19.7833ZM123.828 25.0574C124.144 25.0574 124.437 24.9902 124.705 24.8559C124.974 24.7137 125.187 24.5201 125.345 24.2752C125.511 24.0302 125.594 23.7616 125.594 23.4693V23.327H123.876C123.473 23.327 123.165 23.3981 122.951 23.5404C122.738 23.6747 122.631 23.8762 122.631 24.1448C122.631 24.4372 122.746 24.6623 122.975 24.8204C123.204 24.9784 123.489 25.0574 123.828 25.0574ZM133.859 24.8796V27.3567H132.946V25.6855H128.407V27.3567H127.494V24.8796H128.146C128.415 24.6031 128.605 24.1962 128.715 23.6589C128.826 23.1137 128.889 22.4065 128.905 21.5374L128.94 19.9137H132.923V24.8796H133.859ZM129.77 21.5493C129.754 22.3552 129.687 23.0465 129.569 23.6233C129.45 24.1922 129.296 24.611 129.106 24.8796H132.01V20.7315H129.806L129.77 21.5493ZM137.774 25.8041C137.221 25.8041 136.715 25.6697 136.257 25.4011C135.799 25.1325 135.435 24.769 135.167 24.3107C134.898 23.8446 134.764 23.3389 134.764 22.7937C134.764 22.2406 134.898 21.7349 135.167 21.2767C135.435 20.8105 135.799 20.447 136.257 20.1863C136.723 19.9176 137.233 19.7833 137.786 19.7833C138.339 19.7833 138.845 19.9176 139.303 20.1863C139.769 20.4549 140.137 20.8184 140.405 21.2767C140.674 21.7349 140.808 22.2406 140.808 22.7937C140.808 23.3389 140.674 23.8446 140.405 24.3107C140.137 24.769 139.769 25.1325 139.303 25.4011C138.837 25.6697 138.327 25.8041 137.774 25.8041ZM137.774 24.9626C138.161 24.9626 138.513 24.8678 138.829 24.6781C139.153 24.4885 139.406 24.2317 139.588 23.9078C139.777 23.5759 139.872 23.2085 139.872 22.8055C139.872 22.3947 139.781 22.0233 139.599 21.6915C139.418 21.3596 139.165 21.0989 138.841 20.9093C138.525 20.7196 138.173 20.6248 137.786 20.6248C137.391 20.6248 137.035 20.7196 136.719 20.9093C136.403 21.0989 136.155 21.3596 135.973 21.6915C135.791 22.0233 135.7 22.3947 135.7 22.8055C135.7 23.2085 135.791 23.5759 135.973 23.9078C136.155 24.2317 136.403 24.4885 136.719 24.6781C137.035 24.8678 137.387 24.9626 137.774 24.9626ZM142.413 19.9137H143.325V25.6855H142.413V19.9137ZM147.272 25.6855H146.122L143.444 22.5567L145.873 19.9137H147.011L144.558 22.533L147.272 25.6855Z" fill="black"/>
</g>
<defs>
<clipPath id="clip0_375_1088">
<rect width="159" height="28" fill="white" transform="translate(0 0.685547)"/>
</clipPath>
</defs>
</svg>
